<svg width="15" height="15" viewBox="-14.68 0 122.88 140" xmlns="http://www.w3.org/2000/svg" fill="none">
    <!-- Cabeza añadida -->
    <circle cx="46" cy="16" r="10" fill="#000000"/>

    <!-- Cuerpo original -->
    <path d="M0.46,0h13.33c0.25,0,0.46,0.21,0.46,0.46v44.21l0.29-0.3c3.18-3.48,5.78-6.26,9.1-8.14c3.36-1.9,7.4-2.84,13.42-2.58
           c2.15,0.03,4.69,0.26,6.78,0.46c0.97,0.09,1.84,0.17,2.59,0.22c10.16,0.67,14.92,6.01,18.62,10.17c1.63,1.84,3.05,3.42,4.57,4.15
           c0.72,0.34,1.85-0.14,3.14-0.68c0.78-0.33,1.6-0.68,2.47-0.91c0.56-0.21,0.87-0.33,1.11-0.42l9.24-3.66c1.24-0.42,2.68-0.16,3.95,0.59
           c0.89,0.53,1.71,1.31,2.3,2.26c0.59,0.96,0.95,2.1,0.94,3.36c-0.01,1.81-0.81,3.83-2.82,5.83l-9.26,3.67-0.86,0.3
           c-4.96,1.76-8.55,3.03-14.84,1.48c-4.4-1.71-6.68-4.08-8.9-6.4l-2.81,17.91c2.51,1.58,5.02,2.75,7.39,3.86
           c7.2,3.36,13.12,6.12,14.39,17.43c0.23,2.03,0.12,3.94,0.01,6.02l-0.88,21.91c-0.02,0.43-0.38,0.76-0.8,0.75l-11.13,0.03
           c-0.43,0-0.78-0.35-0.78-0.78c0.12-7.55,0.34-15.46,0.73-23l0.06-1.02c0.06-1.18,0.12-2.27,0.06-3.29
           c-0.06-0.97-0.24-1.88-0.64-2.75c-0.45-0.98-0.86-1.88-1.48-2.17c-1.23-0.57-3.18-1.28-5.4-2.01c-2.54-0.84-5.38-1.68-7.88-2.39
           c-1.84,6.08-4.33,13.44-7,20.43c-2.39,6.24-4.92,12.21-7.27,16.74c-0.14,0.28-0.44,0.44-0.73,0.42l-11.69,0.06
           c-0.43,0-0.78-0.34-0.78-0.77c0-0.1,0.02-0.2,0.06-0.29c2.34-5.75,5.1-13.22,7.75-20.81c2.71-7.77,5.31-15.69,7.23-22.05
           c-1.14-1.4-2.23-2.96-2.97-4.68c-0.82-1.9-1.22-3.96-0.81-6.17l4.01-21.66c-1.39-0.06-2.55-0.11-3.88,0.47
           c-1.82,0.8-3.26,2.42-4.86,4.22c-0.65,0.73-1.32,1.49-2.09,2.27c-0.57,0.59-1.17,1.2-1.73,1.77l-7.08,7.15v59.84
           c0,0.25-0.21,0.46-0.46,0.46H0.46c-0.25,0-0.46-0.21-0.46-0.46V0.46C0,0.21,0.21,0,0.46,0Z" fill="#000000"/>
</svg>
