<svg width="15" height="15" viewBox="0 -4 28 28" fill="none" xmlns="http://www.w3.org/2000/svg">
    <rect width="28" height="20" rx="2" fill="white"/>
    <path fill-rule="evenodd" clip-rule="evenodd"
          d="M28 0H0V1.33333H28V0ZM28 2.66667H0V4H28V2.66667ZM0 5.33333H28V6.66667H0V5.33333ZM28 8H0V9.33333H28V8ZM0 10.6667H28V12H0V10.6667ZM28 13.3333H0V14.6667H28V13.3333ZM0 16H28V17.3333H0V16ZM28 18.6667H0V20H28V18.6667Z"
          fill="#D02F44"/>
    <rect width="12" height="9.33333" fill="#46467F"/>
    <path fill-rule="evenodd" clip-rule="evenodd"
          d="M2.6667 2C2.6667 2.3682 2.3682 2.6667 2 2.6667C1.6318 2.6667 1.3333 2.3682 1.3333 2C1.3333 1.6318 1.6318 1.3333 2 1.3333C2.3682 1.3333 2.6667 1.6318 2.6667 2ZM5.3333 2C5.3333 2.3682 5.0348 2.6667 4.6667 2.6667C4.2985 2.6667 4 2.3682 4 2C4 1.6318 4.2985 1.3333 4.6667 1.3333C5.0348 1.3333 5.3333 1.6318 5.3333 2ZM8 2C8 2.3682 7.7015 2.6667 7.3333 2.6667C6.9651 2.6667 6.6667 2.3682 6.6667 2C6.6667 1.6318 6.9651 1.3333 7.3333 1.3333C7.7015 1.3333 8 1.6318 8 2ZM10.6667 2C10.6667 2.3682 10.3682 2.6667 10 2.6667C9.6318 2.6667 9.3333 2.3682 9.3333 2C9.3333 1.6318 9.6318 1.3333 10 1.3333C10.3682 1.3333 10.6667 1.6318 10.6667 2ZM3.3333 4C3.7015 4 4 3.7015 4 3.3333C4 2.9651 3.7015 2.6667 3.3333 2.6667C2.9651 2.6667 2.6667 2.9651 2.6667 3.3333C2.6667 3.7015 2.9651 4 3.3333 4ZM6.6667 3.3333C6.6667 3.7015 6.3682 4 6 4C5.6318 4 5.3333 3.7015 5.3333 3.3333C5.3333 2.9651 5.6318 2.6667 6 2.6667C6.3682 2.6667 6.6667 2.9651 6.6667 3.3333ZM9.3333 3.3333C9.3333 3.7015 9.0348 4 8.6667 4C8.2985 4 8 3.7015 8 3.3333C8 2.9651 8.2985 2.6667 8.6667 2.6667C9.0348 2.6667 9.3333 2.9651 9.3333 3.3333ZM10.6667 4.6667C10.6667 5.0348 10.3682 5.3333 10 5.3333C9.6318 5.3333 9.3333 5.0348 9.3333 4.6667C9.3333 4.2985 9.6318 4 10 4C10.3682 4 10.6667 4.2985 10.6667 4.6667Z"
          fill="white"/>
</svg>
