<svg width="15" height="15" viewBox="0 0 32 32" xmlns="http://www.w3.org/2000/svg" fill="none">
    <path d="M25.229,14.5h-16.003c-.828,0-1.5.672-1.5,1.5s.672,1.5,1.5,1.5h16.038l-3.114,3.114c-.585.585-.585,1.536,0,2.121.586.586,1.536.586,2.122,0 0,0 2.567-2.567 4.242-4.242 1.367-1.367 1.367-3.583,0-4.95l-4.242-4.243c-.586-.585-1.536-.585-2.122,0-.585.586-.585,1.536,0,2.122l3.079,3.078Z" fill="#000000"/>
    <path d="M20,24v-4.5H9.226c-1.932,0-3.5-1.568-3.5-3.5s1.568-3.5 3.5-3.5H20v-4.5c0-2.761-2.239-5-5-5H8c-1.326,0-2.598.527-3.536,1.464C3.526,5.902,3,7.174,3,8.5v16c0,1.326.527,2.598,1.464,3.536.938.937,2.21,1.464,3.536,1.464h7c1.326,0,2.598-.527,3.536-1.464.937-.938,1.464-2.21,1.464-3.536Z" fill="#000000"/>
</svg>